# xmcd
#
# Track frame offsets:
# 150
# 19969
# 28571
# 43821
# 63865
# 70882
# 81391
# 94372
# 109114
# 119548
# 129247
# 140509
# 158270
# 170082
# 182019
# 195948
#
# Disc length: 2752 seconds
#
#
# Revision: 0
# Processed by: cddbd v1.5.2PL0 Copyright (c) Steve Scherf et al.
# Submitted via: FreeRIP 2.90 
#
DISCID=d80abe10
DTITLE=Scott Blackwood - Leaving Barcelona
DYEAR=2013
DGENRE=Acoustic
TTITLE0=Coffee With Amir
TTITLE1=Run Like a Husky
TTITLE2=Under The Moonlight
TTITLE3=Zaragoza
TTITLE4=Mediterranean
TTITLE5=Old Master
TTITLE6=Out of Nowhere
TTITLE7=Leaving Barcelona
TTITLE8=Phosphorescent Sound
TTITLE9=Good Ole NC
TTITLE10=By the Seat of My Pants
TTITLE11=Age
TTITLE12=Sunday Morning Drive
TTITLE13=Johnny B.
TTITLE14=Blackwood Valley
TTITLE15=Walkin With Myself
EXTD=
EXTT0=
EXTT1=
EXTT2=
EXTT3=
EXTT4=
EXTT5=
EXTT6=
EXTT7=
EXTT8=
EXTT9=
EXTT10=
EXTT11=
EXTT12=
EXTT13=
EXTT14=
EXTT15=
PLAYORDER=
